<?xml version="1.0" encoding="utf-8"?>
<!-- Generator: Adobe Illustrator 20.1.0, SVG Export Plug-In . SVG Version: 6.00 Build 0)  -->
<svg version="1.1" xmlns="http://www.w3.org/2000/svg" xmlns:xlink="http://www.w3.org/1999/xlink" x="0px" y="0px"
	 viewBox="0 0 1000 1000" style="enable-background:new 0 0 1000 1000;" xml:space="preserve">
<g id="Layer_5">
	<rect x="-53.5" y="-53.5" style="fill:#33343A;" width="1107" height="1107"/>
</g>
<g id="Layer_2">
	<g>
		<g>
			<path style="fill:#FFFFFF;" d="M329.5,252.5h-13.3c-2.5,0-4.5-2-4.5-4.5c0-4.5-3.7-8.2-8.2-8.2c-4.5,0-8.2,3.7-8.2,8.2
				c0,2.5-2,4.5-4.5,4.5h-20.1c-2.5,0-4.5-2-4.5-4.5c0-4.5-3.7-8.2-8.2-8.2c-4.5,0-8.2,3.7-8.2,8.2c0,2.5-2,4.5-4.5,4.5h-20.1
				c-2.5,0-4.5-2-4.5-4.5c0-4.5-3.7-8.2-8.2-8.2s-8.2,3.7-8.2,8.2c0,2.5-2,4.5-4.5,4.5h-20.1c-2.5,0-4.5-2-4.5-4.5
				c0-4.5-3.7-8.2-8.2-8.2c-4.5,0-8.2,3.7-8.2,8.2c0,2.5-2,4.5-4.5,4.5h-20.1c-2.5,0-4.5-2-4.5-4.5c0-4.5-3.7-8.2-8.2-8.2
				c-4.5,0-8.2,3.7-8.2,8.2c0,2.5-2,4.5-4.5,4.5H89.1c-2.5,0-4.5-2-4.5-4.5c0-4.5-3.7-8.2-8.2-8.2s-8.2,3.7-8.2,8.2
				c0,2.5-2,4.5-4.5,4.5H50.5c-2.5,0-4.5-2-4.5-4.5v-12.2c0-2.5,2-4.5,4.5-4.5c4.5,0,8.2-3.7,8.2-8.2S55,215,50.5,215
				c-2.5,0-4.5-2-4.5-4.5v-20.1c0-2.5,2-4.5,4.5-4.5c4.5,0,8.2-3.7,8.2-8.2c0-4.5-3.7-8.2-8.2-8.2c-2.5,0-4.5-2-4.5-4.5V145
				c0-2.5,2-4.5,4.5-4.5c4.5,0,8.2-3.7,8.2-8.2s-3.7-8.2-8.2-8.2c-2.5,0-4.5-2-4.5-4.5V99.5c0-2.5,2-4.5,4.5-4.5
				c4.5,0,8.2-3.7,8.2-8.2s-3.7-8.2-8.2-8.2c-2.5,0-4.5-2-4.5-4.5V62c0-2.5,2-4.5,4.5-4.5h13.3c1.2,0,2.4,0.5,3.3,1.4
				c0.8,0.9,1.3,2.1,1.2,3.3l0,0.4c0,4.5,3.7,8.2,8.2,8.2s8.2-3.7,8.2-8.2l0-0.4c-0.1-1.2,0.4-2.4,1.2-3.3c0.8-0.9,2-1.4,3.3-1.4
				h20.1c1.2,0,2.4,0.5,3.3,1.4c0.8,0.9,1.3,2.1,1.2,3.3l0,0.4c0,4.5,3.7,8.2,8.2,8.2c4.5,0,8.2-3.7,8.2-8.2l0-0.4
				c-0.1-1.2,0.4-2.4,1.2-3.3c0.8-0.9,2-1.4,3.3-1.4h20.1c1.2,0,2.4,0.5,3.3,1.4c0.8,0.9,1.3,2.1,1.2,3.3l0,0.4
				c0,4.5,3.7,8.2,8.2,8.2c4.5,0,8.2-3.7,8.2-8.2l0-0.4c-0.1-1.2,0.4-2.4,1.2-3.3c0.8-0.9,2-1.4,3.3-1.4H200c1.2,0,2.4,0.5,3.3,1.4
				c0.8,0.9,1.3,2.1,1.2,3.3l0,0.4c0,4.5,3.7,8.2,8.2,8.2s8.2-3.7,8.2-8.2l0-0.4c-0.1-1.2,0.4-2.4,1.2-3.3c0.8-0.9,2-1.4,3.3-1.4
				h20.1c1.2,0,2.4,0.5,3.3,1.4c0.8,0.9,1.3,2.1,1.2,3.3l0,0.4c0,4.5,3.7,8.2,8.2,8.2c4.5,0,8.2-3.7,8.2-8.2l0-0.4
				c-0.1-1.2,0.4-2.4,1.2-3.3c0.8-0.9,2-1.4,3.3-1.4h20.1c1.2,0,2.4,0.5,3.3,1.4c0.8,0.9,1.3,2.1,1.2,3.3l0,0.4
				c0,4.5,3.7,8.2,8.2,8.2c4.5,0,8.2-3.7,8.2-8.2l0-0.4c-0.1-1.2,0.4-2.4,1.2-3.3c0.8-0.9,2-1.4,3.3-1.4h13.3c2.5,0,4.5,2,4.5,4.5
				v12.2c0,2.5-2,4.5-4.5,4.5c-4.5,0-8.2,3.7-8.2,8.2s3.7,8.2,8.2,8.2c2.5,0,4.5,2,4.5,4.5v20.1c0,2.5-2,4.5-4.5,4.5
				c-4.5,0-8.2,3.7-8.2,8.2s3.7,8.2,8.2,8.2c2.5,0,4.5,2,4.5,4.5V165c0,2.5-2,4.5-4.5,4.5c-4.5,0-8.2,3.7-8.2,8.2
				c0,4.5,3.7,8.2,8.2,8.2c2.5,0,4.5,2,4.5,4.5v20.1c0,2.5-2,4.5-4.5,4.5c-4.5,0-8.2,3.7-8.2,8.2s3.7,8.2,8.2,8.2
				c2.5,0,4.5,2,4.5,4.5V248C334,250.5,332,252.5,329.5,252.5z M320.1,243.5h4.9v-3.8c-7.3-2-12.7-8.7-12.7-16.6s5.4-14.6,12.7-16.6
				v-12.3c-7.3-2-12.7-8.7-12.7-16.6s5.4-14.6,12.7-16.6v-12.3c-7.3-2-12.7-8.7-12.7-16.6s5.4-14.6,12.7-16.6v-12.3
				c-7.3-2-12.7-8.7-12.7-16.6s5.4-14.6,12.7-16.6v-3.8h-4.7c-1.7,7.6-8.6,13.3-16.7,13.3s-15-5.7-16.7-13.3h-11.9
				c-1.7,7.6-8.6,13.3-16.7,13.3s-15-5.7-16.7-13.3h-11.9c-1.7,7.6-8.6,13.3-16.7,13.3s-15-5.7-16.7-13.3H184
				c-1.7,7.6-8.6,13.3-16.7,13.3s-15-5.7-16.7-13.3h-11.9c-1.7,7.6-8.6,13.3-16.7,13.3s-15-5.7-16.7-13.3H93.1
				c-1.7,7.6-8.6,13.3-16.7,13.3s-15-5.7-16.7-13.3H55v3.8c7.3,2,12.7,8.7,12.7,16.6s-5.4,14.6-12.7,16.6v12.3
				c7.3,2,12.7,8.7,12.7,16.6s-5.4,14.6-12.7,16.6v12.3c7.3,2,12.7,8.7,12.7,16.6s-5.4,14.6-12.7,16.6v12.3
				c7.3,2,12.7,8.7,12.7,16.6s-5.4,14.6-12.7,16.6v3.8h4.9c2-7.3,8.7-12.7,16.6-12.7S91,236.2,93,243.5h12.3
				c2-7.3,8.7-12.7,16.6-12.7s14.6,5.4,16.6,12.7h12.3c2-7.3,8.7-12.7,16.6-12.7s14.6,5.4,16.6,12.7h12.3c2-7.3,8.7-12.7,16.6-12.7
				s14.6,5.4,16.6,12.7h12.3c2-7.3,8.7-12.7,16.6-12.7s14.6,5.4,16.6,12.7h12.3c2-7.3,8.7-12.7,16.6-12.7S318.1,236.2,320.1,243.5z"
				/>
		</g>
		<g>
			<path style="fill:#FFFFFF;" d="M295.5,217.2H84.2c-2.5,0-4.5-2-4.5-4.5V97.3c0-2.5,2-4.5,4.5-4.5h211.2c2.5,0,4.5,2,4.5,4.5
				v115.3C300,215.2,298,217.2,295.5,217.2z M88.7,208.2H291V101.8H88.7V208.2z"/>
		</g>
	</g>
	<g>
		<g>
			<path style="fill:#FFFFFF;" d="M635.7,220.1h-10.9c-2.5,0-4.5-2-4.5-4.5c0-3.3-2.7-5.9-5.9-5.9s-5.9,2.7-5.9,5.9
				c0,2.5-2,4.5-4.5,4.5h-16.5c-2.5,0-4.5-2-4.5-4.5c0-3.3-2.7-5.9-5.9-5.9s-5.9,2.7-5.9,5.9c0,2.5-2,4.5-4.5,4.5h-16.5
				c-2.5,0-4.5-2-4.5-4.5c0-3.3-2.7-5.9-5.9-5.9s-5.9,2.7-5.9,5.9c0,2.5-2,4.5-4.5,4.5h-16.5c-2.5,0-4.5-2-4.5-4.5
				c0-3.3-2.7-5.9-5.9-5.9s-5.9,2.7-5.9,5.9c0,2.5-2,4.5-4.5,4.5h-16.5c-2.5,0-4.5-2-4.5-4.5c0-3.3-2.7-5.9-5.9-5.9
				c-3.3,0-5.9,2.7-5.9,5.9c0,2.5-2,4.5-4.5,4.5h-16.5c-2.5,0-4.5-2-4.5-4.5c0-3.3-2.7-5.9-5.9-5.9s-5.9,2.7-5.9,5.9
				c0,2.5-2,4.5-4.5,4.5H406c-2.5,0-4.5-2-4.5-4.5v-15.4c0-2.5,2-4.5,4.5-4.5c3.3,0,5.9-2.7,5.9-5.9c0-3.3-2.7-5.9-5.9-5.9
				c-2.5,0-4.5-2-4.5-4.5v-16.5c0-2.5,2-4.5,4.5-4.5c3.3,0,5.9-2.7,5.9-5.9s-2.7-5.9-5.9-5.9c-2.5,0-4.5-2-4.5-4.5v-16.5
				c0-2.5,2-4.5,4.5-4.5c3.3,0,5.9-2.7,5.9-5.9c0-3.3-2.7-5.9-5.9-5.9c-2.5,0-4.5-2-4.5-4.5v-10c0-2.5,2-4.5,4.5-4.5h10.9
				c1.2,0,2.4,0.5,3.3,1.4c0.9,0.9,1.3,2.1,1.2,3.3l0,0.3c0,3.2,2.7,5.9,5.9,5.9s5.9-2.7,5.9-5.9l0-0.3c-0.1-1.2,0.4-2.4,1.2-3.3
				c0.8-0.9,2-1.4,3.3-1.4h16.6c1.2,0,2.4,0.5,3.3,1.4c0.8,0.9,1.3,2.1,1.2,3.3l0,0.4c0,3.2,2.7,5.9,5.9,5.9c3.3,0,5.9-2.7,5.9-5.9
				l0-0.3c-0.1-1.2,0.4-2.4,1.2-3.3c0.8-0.9,2-1.4,3.3-1.4h16.6c1.2,0,2.4,0.5,3.3,1.4c0.8,0.9,1.3,2.1,1.2,3.3l0,0.4
				c0,3.2,2.7,5.9,5.9,5.9s5.9-2.7,5.9-5.9l0-0.3c-0.1-1.2,0.4-2.4,1.2-3.3s2-1.4,3.3-1.4h16.6c1.2,0,2.4,0.5,3.3,1.4
				s1.3,2.1,1.2,3.3l0,0.3c0,3.2,2.7,5.9,5.9,5.9s5.9-2.7,5.9-5.9l0-0.3c-0.1-1.2,0.4-2.4,1.2-3.3s2-1.4,3.3-1.4h16.6
				c1.2,0,2.4,0.5,3.3,1.4c0.8,0.9,1.3,2.1,1.2,3.3l0,0.4c0,3.2,2.7,5.9,5.9,5.9s5.9-2.7,5.9-5.9l0-0.3c-0.1-1.2,0.4-2.4,1.2-3.3
				c0.8-0.9,2-1.4,3.3-1.4h16.6c1.2,0,2.4,0.5,3.3,1.4c0.8,0.9,1.3,2.1,1.2,3.3l0,0.4c0,3.2,2.7,5.9,5.9,5.9s5.9-2.7,5.9-5.9l0-0.3
				c-0.1-1.2,0.4-2.4,1.2-3.3c0.8-0.9,2-1.4,3.3-1.4h10.9c2.5,0,4.5,2,4.5,4.5v10c0,2.5-2,4.5-4.5,4.5c-3.3,0-5.9,2.7-5.9,5.9
				c0,3.3,2.7,5.9,5.9,5.9c2.5,0,4.5,2,4.5,4.5v16.5c0,2.5-2,4.5-4.5,4.5c-3.3,0-5.9,2.7-5.9,5.9s2.7,5.9,5.9,5.9
				c2.5,0,4.5,2,4.5,4.5v16.5c0,2.5-2,4.5-4.5,4.5c-3.3,0-5.9,2.7-5.9,5.9c0,3.3,2.7,5.9,5.9,5.9c2.5,0,4.5,2,4.5,4.5v15.4
				C640.2,218.1,638.1,220.1,635.7,220.1z M628.5,211.1h2.6v-7.1c-6-1.9-10.4-7.6-10.4-14.2s4.4-12.3,10.4-14.2v-8.9
				c-6-1.9-10.4-7.6-10.4-14.2s4.4-12.3,10.4-14.2v-8.9c-6-1.9-10.4-7.6-10.4-14.2c0-2.8,0.8-5.4,2.1-7.7c-2.4,1.7-5.4,2.7-8.6,2.7
				c-6.9,0-12.7-4.7-14.4-11h-8.6c-1.7,6.3-7.5,11-14.4,11s-12.7-4.7-14.4-11h-8.6c-1.7,6.3-7.5,11-14.4,11c-6.9,0-12.7-4.7-14.4-11
				h-8.6c-1.7,6.3-7.5,11-14.4,11s-12.7-4.7-14.4-11h-8.6c-1.7,6.3-7.5,11-14.4,11s-12.7-4.7-14.4-11h-8.6c-1.7,6.3-7.5,11-14.4,11
				c-3.2,0-6.1-1-8.6-2.7c1.4,2.2,2.1,4.9,2.1,7.7c0,6.7-4.4,12.3-10.4,14.2v8.9c6,1.9,10.4,7.6,10.4,14.2s-4.4,12.3-10.4,14.2v8.9
				c6,1.9,10.4,7.6,10.4,14.2s-4.4,12.3-10.4,14.2v7.1h2.6c1.9-6,7.6-10.4,14.2-10.4s12.3,4.4,14.2,10.4h8.9
				c1.9-6,7.6-10.4,14.2-10.4s12.3,4.4,14.2,10.4h8.9c1.9-6,7.6-10.4,14.2-10.4s12.3,4.4,14.2,10.4h8.9c1.9-6,7.6-10.4,14.2-10.4
				c6.7,0,12.3,4.4,14.2,10.4h8.9c1.9-6,7.6-10.4,14.2-10.4s12.3,4.4,14.2,10.4h8.9c1.9-6,7.6-10.4,14.2-10.4S626.6,205,628.5,211.1
				z M410.5,100.7c1.5,0.5,2.8,1.1,4.1,2c-0.7-1.2-1.2-2.4-1.6-3.7h-2.5V100.7z M628.7,98.9c-0.4,1.3-0.9,2.6-1.6,3.7
				c1.2-0.9,2.6-1.5,4.1-2v-1.7H628.7z"/>
		</g>
		<g>
			<path style="fill:#FFFFFF;" d="M604.1,188H437.6c-2.5,0-4.5-2-4.5-4.5v-57c0-2.5,2-4.5,4.5-4.5h166.5c2.5,0,4.5,2,4.5,4.5v57
				C608.6,186,606.5,188,604.1,188z M442.1,179h157.5v-48H442.1V179z"/>
		</g>
	</g>
	<g>
		<g>
			<path style="fill:#FFFFFF;" d="M916.8,353.8h-12.2c-2.5,0-4.5-2-4.5-4.5c0-4.5-3.7-8.2-8.2-8.2s-8.2,3.7-8.2,8.2
				c0,2.5-2,4.5-4.5,4.5h-20.1c-2.5,0-4.5-2-4.5-4.5c0-4.5-3.7-8.2-8.2-8.2s-8.2,3.7-8.2,8.2c0,2.5-2,4.5-4.5,4.5h-20.1
				c-2.5,0-4.5-2-4.5-4.5c0-4.5-3.7-8.2-8.2-8.2s-8.2,3.7-8.2,8.2c0,2.5-2,4.5-4.5,4.5h-20.1c-2.5,0-4.5-2-4.5-4.5
				c0-4.5-3.7-8.2-8.2-8.2s-8.2,3.7-8.2,8.2c0,2.5-2,4.5-4.5,4.5h-12.2c-2.5,0-4.5-2-4.5-4.5V336c0-2.5,2-4.5,4.5-4.5
				c4.5,0,8.2-3.7,8.2-8.2s-3.7-8.2-8.2-8.2c-2.5,0-4.5-2-4.5-4.5v-20.1c0-2.5,2-4.5,4.5-4.5c4.5,0,8.2-3.7,8.2-8.2
				c0-4.5-3.7-8.2-8.2-8.2c-2.5,0-4.5-2-4.5-4.5v-20.1c0-2.5,2-4.5,4.5-4.5c4.5,0,8.2-3.7,8.2-8.2c0-4.5-3.7-8.2-8.2-8.2
				c-2.5,0-4.5-2-4.5-4.5v-20.1c0-2.5,2-4.5,4.5-4.5c4.5,0,8.2-3.7,8.2-8.2s-3.7-8.2-8.2-8.2c-2.5,0-4.5-2-4.5-4.5v-20.1
				c0-2.5,2-4.5,4.5-4.5c4.5,0,8.2-3.7,8.2-8.2c0-4.5-3.7-8.2-8.2-8.2c-2.5,0-4.5-2-4.5-4.5v-20.1c0-2.5,2-4.5,4.5-4.5
				c4.5,0,8.2-3.7,8.2-8.2c0-4.5-3.7-8.2-8.2-8.2c-2.5,0-4.5-2-4.5-4.5V70.3c0-2.5,2-4.5,4.5-4.5H743c2.5,0,4.5,2,4.5,4.5
				c0,4.5,3.7,8.2,8.2,8.2s8.2-3.7,8.2-8.2c0-2.5,2-4.5,4.5-4.5h20.1c2.5,0,4.5,2,4.5,4.5c0,4.5,3.7,8.2,8.2,8.2s8.2-3.7,8.2-8.2
				c0-2.5,2-4.5,4.5-4.5h20.1c2.5,0,4.5,2,4.5,4.5c0,4.5,3.7,8.2,8.2,8.2s8.2-3.7,8.2-8.2c0-2.5,2-4.5,4.5-4.5h20.1
				c2.5,0,4.5,2,4.5,4.5c0,4.5,3.7,8.2,8.2,8.2s8.2-3.7,8.2-8.2c0-2.5,2-4.5,4.5-4.5h12.2c2.5,0,4.5,2,4.5,4.5v13.3
				c0,1.2-0.5,2.4-1.4,3.3c-0.9,0.8-2.1,1.3-3.3,1.2l-0.4,0c-4.5,0-8.2,3.7-8.2,8.2c0,4.5,3.7,8.2,8.2,8.2l0.4,0
				c1.2-0.1,2.4,0.4,3.3,1.2c0.9,0.8,1.4,2,1.4,3.3V129c0,1.2-0.5,2.4-1.4,3.3c-0.9,0.8-2.1,1.3-3.3,1.2l-0.4,0
				c-4.5,0-8.2,3.7-8.2,8.2c0,4.5,3.7,8.2,8.2,8.2l0.4,0c1.2-0.1,2.4,0.4,3.3,1.2c0.9,0.8,1.4,2,1.4,3.3v20.1c0,1.2-0.5,2.4-1.4,3.3
				c-0.9,0.8-2.1,1.3-3.3,1.2l-0.4,0c-4.5,0-8.2,3.7-8.2,8.2s3.7,8.2,8.2,8.2l0.4,0c1.2-0.1,2.4,0.4,3.3,1.2c0.9,0.8,1.4,2,1.4,3.3
				v20.1c0,1.2-0.5,2.4-1.4,3.3c-0.9,0.8-2.1,1.3-3.3,1.2l-0.4,0c-4.5,0-8.2,3.7-8.2,8.2c0,4.5,3.7,8.2,8.2,8.2l0.4,0
				c1.2-0.1,2.4,0.4,3.3,1.2c0.9,0.8,1.4,2,1.4,3.3v20.1c0,1.2-0.5,2.4-1.4,3.3c-0.9,0.8-2.1,1.3-3.3,1.2l-0.4,0
				c-4.5,0-8.2,3.7-8.2,8.2c0,4.5,3.7,8.2,8.2,8.2l0.4,0c1.2-0.1,2.4,0.4,3.3,1.2c0.9,0.8,1.4,2,1.4,3.3v20.1c0,1.2-0.5,2.4-1.4,3.3
				c-0.9,0.8-2.1,1.3-3.3,1.2l-0.4,0c-4.5,0-8.2,3.7-8.2,8.2s3.7,8.2,8.2,8.2l0.4,0c1.2-0.1,2.4,0.4,3.3,1.2c0.9,0.8,1.4,2,1.4,3.3
				v13.3C921.3,351.8,919.3,353.8,916.8,353.8z M908.5,344.8h3.8v-4.7c-7.6-1.7-13.3-8.6-13.3-16.7s5.7-15,13.3-16.7v-11.9
				c-7.6-1.7-13.3-8.6-13.3-16.7s5.7-15,13.3-16.7v-11.9c-7.6-1.7-13.3-8.6-13.3-16.7s5.7-15,13.3-16.7v-11.9
				c-7.6-1.7-13.3-8.6-13.3-16.7s5.7-15,13.3-16.7v-11.9c-7.6-1.7-13.3-8.6-13.3-16.7s5.7-15,13.3-16.7V113
				c-7.6-1.7-13.3-8.6-13.3-16.7s5.7-15,13.3-16.7v-4.7h-3.8c-2,7.3-8.7,12.7-16.6,12.7s-14.6-5.4-16.6-12.7h-12.3
				c-2,7.3-8.7,12.7-16.6,12.7s-14.6-5.4-16.6-12.7h-12.3c-2,7.3-8.7,12.7-16.6,12.7s-14.6-5.4-16.6-12.7h-12.3
				c-2,7.3-8.7,12.7-16.6,12.7s-14.6-5.4-16.6-12.7h-3.8v4.9c7.3,2,12.7,8.7,12.7,16.6s-5.4,14.6-12.7,16.6v12.3
				c7.3,2,12.7,8.7,12.7,16.6s-5.4,14.6-12.7,16.6v12.3c7.3,2,12.7,8.7,12.7,16.6s-5.4,14.6-12.7,16.6v12.3
				c7.3,2,12.7,8.7,12.7,16.6s-5.4,14.6-12.7,16.6v12.3c7.3,2,12.7,8.7,12.7,16.6s-5.4,14.6-12.7,16.6v12.3
				c7.3,2,12.7,8.7,12.7,16.6s-5.4,14.6-12.7,16.6v4.9h3.8c2-7.3,8.7-12.7,16.6-12.7s14.6,5.4,16.6,12.7h12.3
				c2-7.3,8.7-12.7,16.6-12.7s14.6,5.4,16.6,12.7h12.3c2-7.3,8.7-12.7,16.6-12.7s14.6,5.4,16.6,12.7h12.3c2-7.3,8.7-12.7,16.6-12.7
				S906.5,337.5,908.5,344.8z"/>
		</g>
		<g>
			<path style="fill:#FFFFFF;" d="M884.3,320.8h-121c-2.5,0-4.5-2-4.5-4.5v-213c0-2.5,2-4.5,4.5-4.5h121c2.5,0,4.5,2,4.5,4.5v213
				C888.8,318.8,886.8,320.8,884.3,320.8z M767.8,311.8h112v-204h-112V311.8z"/>
		</g>
	</g>
	<g>
		<g>
			<path style="fill:#FFFFFF;" d="M656.4,474.9h-20.3c-2.5,0-4.5-2-4.5-4.5c0-4.5-3.7-8.2-8.2-8.2s-8.2,3.7-8.2,8.2
				c0,2.5-2,4.5-4.5,4.5h-20.1c-2.5,0-4.5-2-4.5-4.5c0-4.5-3.7-8.2-8.2-8.2s-8.2,3.7-8.2,8.2c0,2.5-2,4.5-4.5,4.5h-20.1
				c-2.5,0-4.5-2-4.5-4.5c0-4.5-3.7-8.2-8.2-8.2s-8.2,3.7-8.2,8.2c0,2.5-2,4.5-4.5,4.5h-20.1c-2.5,0-4.5-2-4.5-4.5
				c0-4.5-3.7-8.2-8.2-8.2c-4.5,0-8.2,3.7-8.2,8.2c0,2.5-2,4.5-4.5,4.5h-20.1c-2.5,0-4.5-2-4.5-4.5c0-4.5-3.7-8.2-8.2-8.2
				s-8.2,3.7-8.2,8.2c0,2.5-2,4.5-4.5,4.5H409c-2.5,0-4.5-2-4.5-4.5c0-4.5-3.7-8.2-8.2-8.2c-4.5,0-8.2,3.7-8.2,8.2
				c0,2.5-2,4.5-4.5,4.5h-20.1c-2.5,0-4.5-2-4.5-4.5c0-4.5-3.7-8.2-8.2-8.2s-8.2,3.7-8.2,8.2c0,2.5-2,4.5-4.5,4.5h-20.1
				c-2.5,0-4.5-2-4.5-4.5c0-4.5-3.7-8.2-8.2-8.2c-4.5,0-8.2,3.7-8.2,8.2c0,2.5-2,4.5-4.5,4.5h-13.3c-2.5,0-4.5-2-4.5-4.5v-12.2
				c0-2.5,2-4.5,4.5-4.5c4.5,0,8.2-3.7,8.2-8.2c0-4.5-3.7-8.2-8.2-8.2c-2.5,0-4.5-2-4.5-4.5v-20.1c0-2.5,2-4.5,4.5-4.5
				c4.5,0,8.2-3.7,8.2-8.2c0-4.5-3.7-8.2-8.2-8.2c-2.5,0-4.5-2-4.5-4.5v-20.1c0-2.5,2-4.5,4.5-4.5c4.5,0,8.2-3.7,8.2-8.2
				s-3.7-8.2-8.2-8.2c-2.5,0-4.5-2-4.5-4.5v-20.1c0-2.5,2-4.5,4.5-4.5c4.5,0,8.2-3.7,8.2-8.2c0-4.5-3.7-8.2-8.2-8.2
				c-2.5,0-4.5-2-4.5-4.5v-12.2c0-2.5,2-4.5,4.5-4.5h13.3c1.2,0,2.4,0.5,3.3,1.4c0.8,0.9,1.3,2.1,1.2,3.3l0,0.4
				c0,4.5,3.7,8.2,8.2,8.2c4.5,0,8.2-3.7,8.2-8.2l0-0.4c-0.1-1.2,0.4-2.4,1.2-3.3c0.8-0.9,2-1.4,3.3-1.4h20.1c1.2,0,2.4,0.5,3.3,1.4
				c0.9,0.9,1.3,2.1,1.2,3.3l0,0.4c0,4.5,3.7,8.2,8.2,8.2s8.2-3.7,8.2-8.2l0-0.4c-0.1-1.2,0.4-2.4,1.2-3.3c0.8-0.9,2-1.4,3.3-1.4
				h20.1c1.2,0,2.4,0.5,3.3,1.4c0.8,0.9,1.3,2.1,1.2,3.3l0,0.4c0,4.5,3.7,8.2,8.2,8.2c4.5,0,8.2-3.7,8.2-8.2l0-0.4
				c-0.1-1.2,0.4-2.4,1.2-3.3c0.8-0.9,2-1.4,3.3-1.4h20.1c1.2,0,2.4,0.5,3.3,1.4c0.8,0.9,1.3,2.1,1.2,3.3l0,0.4
				c0,4.5,3.7,8.2,8.2,8.2s8.2-3.7,8.2-8.2l0-0.4c-0.1-1.2,0.4-2.4,1.2-3.3c0.8-0.9,2-1.4,3.3-1.4h20.1c1.2,0,2.4,0.5,3.3,1.4
				c0.8,0.9,1.3,2.1,1.2,3.3l0,0.4c0,4.5,3.7,8.2,8.2,8.2c4.5,0,8.2-3.7,8.2-8.2l0-0.4c-0.1-1.2,0.4-2.4,1.2-3.3
				c0.8-0.9,2-1.4,3.3-1.4h20.1c1.2,0,2.4,0.5,3.3,1.4c0.8,0.9,1.3,2.1,1.2,3.3l0,0.4c0,4.5,3.7,8.2,8.2,8.2s8.2-3.7,8.2-8.2l0-0.4
				c-0.1-1.2,0.4-2.4,1.2-3.3s2-1.4,3.3-1.4h20.1c1.2,0,2.4,0.5,3.3,1.4s1.3,2.1,1.2,3.3l0,0.5c0,4.5,3.7,8.2,8.2,8.2
				s8.2-3.7,8.2-8.2l0-0.4c-0.1-1.2,0.4-2.4,1.2-3.3s2-1.4,3.3-1.4h20.1c1.2,0,2.4,0.5,3.3,1.4s1.3,2.1,1.2,3.3l0,0.5
				c0,4.5,3.7,8.2,8.2,8.2s8.2-3.7,8.2-8.2l0-0.4c-0.1-1.2,0.4-2.4,1.2-3.3s2-1.4,3.3-1.4h20.4c2.5,0,4.5,2,4.5,4.5v12.2
				c0,2.5-2,4.5-4.5,4.5c-4.5,0-8.2,3.7-8.2,8.2c0,4.5,3.7,8.2,8.2,8.2c2.5,0,4.5,2,4.5,4.5V342c0,2.5-2,4.5-4.5,4.5
				c-4.5,0-8.2,3.7-8.2,8.2s3.7,8.2,8.2,8.2c2.5,0,4.5,2,4.5,4.5v20.1c0,2.5-2,4.5-4.5,4.5c-4.5,0-8.2,3.7-8.2,8.2
				c0,4.5,3.7,8.2,8.2,8.2c2.5,0,4.5,2,4.5,4.5v20.1c0,2.5-2,4.5-4.5,4.5c-4.5,0-8.2,3.7-8.2,8.2c0,4.5,3.7,8.2,8.2,8.2
				c2.5,0,4.5,2,4.5,4.5v12.2C660.9,472.9,658.9,474.9,656.4,474.9z M640,465.9h11.9v-3.8c-7.3-2-12.7-8.7-12.7-16.6
				s5.4-14.6,12.7-16.6v-12.3c-7.3-2-12.7-8.7-12.7-16.6s5.4-14.6,12.7-16.6v-12.3c-7.3-2-12.7-8.7-12.7-16.6s5.4-14.6,12.7-16.6
				v-12.3c-7.3-2-12.7-8.7-12.7-16.6s5.4-14.6,12.7-16.6v-3.8h-11.8c-1.7,7.6-8.6,13.3-16.7,13.3s-15-5.7-16.7-13.3h-11.9
				c-1.7,7.6-8.6,13.3-16.7,13.3s-15-5.7-16.7-13.3h-11.9c-1.7,7.6-8.6,13.3-16.7,13.3s-15-5.7-16.7-13.3h-11.9
				c-1.7,7.6-8.6,13.3-16.7,13.3s-15-5.7-16.7-13.3h-11.9c-1.7,7.6-8.6,13.3-16.7,13.3s-15-5.7-16.7-13.3H413
				c-1.7,7.6-8.6,13.3-16.7,13.3s-15-5.7-16.7-13.3h-11.9c-1.7,7.6-8.6,13.3-16.7,13.3s-15-5.7-16.7-13.3h-11.9
				c-1.7,7.6-8.6,13.3-16.7,13.3s-15-5.7-16.7-13.3H284v3.8c7.3,2,12.7,8.7,12.7,16.6s-5.4,14.6-12.7,16.6v12.3
				c7.3,2,12.7,8.7,12.7,16.6s-5.4,14.6-12.7,16.6v12.3c7.3,2,12.7,8.7,12.7,16.6s-5.4,14.6-12.7,16.6v12.3
				c7.3,2,12.7,8.7,12.7,16.6s-5.4,14.6-12.7,16.6v3.8h4.9c2-7.3,8.7-12.7,16.6-12.7s14.6,5.4,16.6,12.7h12.3
				c2-7.3,8.7-12.7,16.6-12.7s14.6,5.4,16.6,12.7h12.3c2-7.3,8.7-12.7,16.6-12.7s14.6,5.4,16.6,12.7h12.3c2-7.3,8.7-12.7,16.6-12.7
				s14.6,5.4,16.6,12.7h12.3c2-7.3,8.7-12.7,16.6-12.7s14.6,5.4,16.6,12.7H516c2-7.3,8.7-12.7,16.6-12.7s14.6,5.4,16.6,12.7h12.3
				c2-7.3,8.7-12.7,16.6-12.7s14.6,5.4,16.6,12.7h12.3c2-7.3,8.7-12.7,16.6-12.7S638,458.6,640,465.9z"/>
		</g>
		<g>
			<path style="fill:#FFFFFF;" d="M619.4,432.4h-303c-2.5,0-4.5-2-4.5-4.5v-101c0-2.5,2-4.5,4.5-4.5h303c2.5,0,4.5,2,4.5,4.5v101
				C623.9,430.4,621.9,432.4,619.4,432.4z M320.9,423.4h294v-92h-294V423.4z"/>
		</g>
	</g>
	<g>
		<g>
			<path style="fill:#FFFFFF;" d="M205.1,462.5h-8.7c-2.5,0-4.5-2-4.5-4.5c0-3.6-2.9-6.5-6.5-6.5s-6.5,2.9-6.5,6.5
				c0,2.5-2,4.5-4.5,4.5H157c-2.5,0-4.5-2-4.5-4.5c0-3.6-2.9-6.5-6.5-6.5s-6.5,2.9-6.5,6.5c0,2.5-2,4.5-4.5,4.5h-17.4
				c-2.5,0-4.5-2-4.5-4.5c0-3.6-2.9-6.5-6.5-6.5s-6.5,2.9-6.5,6.5c0,2.5-2,4.5-4.5,4.5H84.2c-2.5,0-4.5-2-4.5-4.5v-10.6
				c0-2.5,2-4.5,4.5-4.5c3.6,0,6.5-2.9,6.5-6.5s-2.9-6.5-6.5-6.5c-2.5,0-4.5-2-4.5-4.5V408c0-2.5,2-4.5,4.5-4.5
				c3.6,0,6.5-2.9,6.5-6.5s-2.9-6.5-6.5-6.5c-2.5,0-4.5-2-4.5-4.5v-17.4c0-2.5,2-4.5,4.5-4.5c3.6,0,6.5-2.9,6.5-6.5
				s-2.9-6.5-6.5-6.5c-2.5,0-4.5-2-4.5-4.5v-17.4c0-2.5,2-4.5,4.5-4.5c3.6,0,6.5-2.9,6.5-6.5s-2.9-6.5-6.5-6.5c-2.5,0-4.5-2-4.5-4.5
				v-10.6c0-2.5,2-4.5,4.5-4.5h11.5c1.2,0,2.4,0.5,3.3,1.4s1.3,2.1,1.2,3.3l0,0.4c0,3.5,2.9,6.4,6.5,6.4s6.5-2.9,6.5-6.5l0-0.3
				c-0.1-1.2,0.4-2.4,1.2-3.3s2-1.4,3.3-1.4h17.4c1.2,0,2.4,0.5,3.3,1.4s1.3,2.1,1.2,3.3l0,0.4c0,3.5,2.9,6.4,6.5,6.4
				s6.5-2.9,6.5-6.5l0-0.3c-0.1-1.2,0.4-2.4,1.2-3.3s2-1.4,3.3-1.4h17.4c1.2,0,2.4,0.5,3.3,1.4s1.3,2.1,1.2,3.3l0,0.4
				c0,3.5,2.9,6.4,6.5,6.4s6.5-2.9,6.5-6.5l0-0.3c-0.1-1.2,0.4-2.4,1.2-3.3s2-1.4,3.3-1.4h8.7c2.5,0,4.5,2,4.5,4.5v10.6
				c0,2.5-2,4.5-4.5,4.5c-3.6,0-6.5,2.9-6.5,6.5s2.9,6.5,6.5,6.5c2.5,0,4.5,2,4.5,4.5v17.4c0,2.5-2,4.5-4.5,4.5
				c-3.6,0-6.5,2.9-6.5,6.5s2.9,6.5,6.5,6.5c2.5,0,4.5,2,4.5,4.5v17.4c0,2.5-2,4.5-4.5,4.5c-3.6,0-6.5,2.9-6.5,6.5s2.9,6.5,6.5,6.5
				c2.5,0,4.5,2,4.5,4.5v17.4c0,2.5-2,4.5-4.5,4.5c-3.6,0-6.5,2.9-6.5,6.5s2.9,6.5,6.5,6.5c2.5,0,4.5,2,4.5,4.5V458
				C209.6,460.4,207.6,462.5,205.1,462.5z M200.2,453.5h0.4v-2.2c-0.5-0.2-1-0.3-1.5-0.5C199.5,451.6,199.9,452.5,200.2,453.5z
				 M160.9,453.5h9.7c1.9-6.3,7.8-11,14.8-11c2.1,0,4.2,0.4,6,1.2c-1.2-2.2-1.8-4.6-1.8-7.3c0-7,4.6-12.9,11-14.8v-9.7
				c-6.3-1.9-11-7.8-11-14.8s4.6-12.9,11-14.8v-9.7c-6.3-1.9-11-7.8-11-14.8s4.6-12.9,11-14.8v-9.7c-6.3-1.9-11-7.8-11-14.8
				c0-2.3,0.5-4.6,1.5-6.6c-1.8,0.7-3.7,1.1-5.7,1.1c-7.2,0-13.2-4.9-15-11.6H161c-1.7,6.6-7.8,11.6-15,11.6s-13.2-4.9-15-11.6h-9.4
				c-1.7,6.6-7.8,11.6-15,11.6c-3.8,0-7.3-1.4-10-3.7c1.9,2.6,3,5.7,3,9.2c0,7-4.6,12.9-11,14.8v9.7c6.3,1.9,11,7.8,11,14.8
				s-4.6,12.9-11,14.8v9.7c6.3,1.9,11,7.8,11,14.8s-4.6,12.9-11,14.8v9.7c6.3,1.9,11,7.8,11,14.8s-4.6,12.9-11,14.8v2.2h3.2
				c1.9-6.3,7.8-11,14.8-11s12.9,4.6,14.8,11h9.7c1.9-6.3,7.8-11,14.8-11S158.9,447.1,160.9,453.5z M88.7,303.5c2,0.6,3.9,1.7,5.5,3
				c-1.1-1.6-2-3.3-2.5-5.2h-3V303.5z M200.4,301.3c-0.2,0.9-0.6,1.8-1,2.6c0.4-0.1,0.8-0.3,1.2-0.4v-2.2H200.4z"/>
		</g>
		<g>
			<path style="fill:#FFFFFF;" d="M175.9,428.8h-62.5c-2.5,0-4.5-2-4.5-4.5v-93.8c0-2.5,2-4.5,4.5-4.5h62.5c2.5,0,4.5,2,4.5,4.5
				v93.8C180.4,426.8,178.4,428.8,175.9,428.8z M117.9,419.8h53.5V335h-53.5V419.8z"/>
		</g>
	</g>
	<g>
		<g>
			<path style="fill:#FFFFFF;" d="M352.6,942.5h-18.3c-2.5,0-4.5-2-4.5-4.5c0-8-6.5-14.6-14.6-14.6s-14.6,6.5-14.6,14.6
				c0,2.5-2,4.5-4.5,4.5h-30.2c-2.5,0-4.5-2-4.5-4.5c0-8-6.5-14.6-14.6-14.6s-14.6,6.5-14.6,14.6c0,2.5-2,4.5-4.5,4.5h-30.2
				c-2.5,0-4.5-2-4.5-4.5c0-8-6.5-14.6-14.6-14.6s-14.6,6.5-14.6,14.6c0,2.5-2,4.5-4.5,4.5h-30.2c-2.5,0-4.5-2-4.5-4.5
				c0-8-6.5-14.6-14.6-14.6S95.6,930,95.6,938c0,2.5-2,4.5-4.5,4.5H72.7c-2.5,0-4.5-2-4.5-4.5v-20c0-2.5,2-4.5,4.5-4.5
				c8,0,14.6-6.5,14.6-14.6s-6.5-14.6-14.6-14.6c-2.5,0-4.5-2-4.5-4.5v-30.2c0-2.5,2-4.5,4.5-4.5c8,0,14.6-6.5,14.6-14.6
				c0-8-6.5-14.6-14.6-14.6c-2.5,0-4.5-2-4.5-4.5v-30.2c0-2.5,2-4.5,4.5-4.5c8,0,14.6-6.5,14.6-14.6s-6.5-14.6-14.6-14.6
				c-2.5,0-4.5-2-4.5-4.5V713c0-2.5,2-4.5,4.5-4.5c8,0,14.6-6.5,14.6-14.6s-6.5-14.6-14.6-14.6c-2.5,0-4.5-2-4.5-4.5v-30.2
				c0-2.5,2-4.5,4.5-4.5c8,0,14.6-6.5,14.6-14.6c0-8-6.5-14.6-14.6-14.6c-2.5,0-4.5-2-4.5-4.5v-30.2c0-2.5,2-4.5,4.5-4.5
				c8,0,14.6-6.5,14.6-14.6s-6.5-14.6-14.6-14.6c-2.5,0-4.5-2-4.5-4.5v-20c0-2.5,2-4.5,4.5-4.5h18.3c2.5,0,4.5,2,4.5,4.5
				c0,8,6.5,14.6,14.6,14.6s14.6-6.5,14.6-14.6c0-2.5,2-4.5,4.5-4.5h30.2c2.5,0,4.5,2,4.5,4.5c0,8,6.5,14.6,14.6,14.6
				s14.6-6.5,14.6-14.6c0-2.5,2-4.5,4.5-4.5h30.2c2.5,0,4.5,2,4.5,4.5c0,8,6.5,14.6,14.6,14.6s14.6-6.5,14.6-14.6
				c0-2.5,2-4.5,4.5-4.5h30.2c2.5,0,4.5,2,4.5,4.5c0,8,6.5,14.6,14.6,14.6s14.6-6.5,14.6-14.6c0-2.5,2-4.5,4.5-4.5h18.3
				c2.5,0,4.5,2,4.5,4.5v20c0,1.2-0.5,2.4-1.4,3.3s-2.1,1.3-3.3,1.2c-0.3,0-0.5,0-0.8,0c-8,0-14.6,6.5-14.6,14.6s6.5,14.6,14.6,14.6
				c0.3,0,0.5,0,0.7,0c1.2-0.1,2.4,0.4,3.3,1.2c0.9,0.9,1.4,2,1.4,3.3v30.3c0,1.2-0.5,2.4-1.4,3.3c-0.9,0.9-2.1,1.3-3.3,1.2
				c-0.2,0-0.5,0-0.7,0c-8,0-14.6,6.5-14.6,14.6c0,8,6.5,14.6,14.6,14.6c0.3,0,0.5,0,0.8,0c1.2-0.1,2.4,0.4,3.3,1.2
				c0.9,0.8,1.4,2,1.4,3.3v30.3c0,1.2-0.5,2.4-1.4,3.3c-0.9,0.8-2.1,1.3-3.3,1.2c-0.3,0-0.5,0-0.8,0c-8,0-14.6,6.5-14.6,14.6
				s6.5,14.6,14.6,14.6c0.3,0,0.5,0,0.8,0c1.2-0.1,2.4,0.4,3.3,1.2c0.9,0.8,1.4,2,1.4,3.3v30.3c0,1.2-0.5,2.4-1.4,3.3
				c-0.9,0.8-2.1,1.3-3.3,1.2c-0.3,0-0.5,0-0.8,0c-8,0-14.6,6.5-14.6,14.6s6.5,14.6,14.6,14.6c0.3,0,0.5,0,0.8,0
				c1.2-0.1,2.4,0.4,3.3,1.2c0.9,0.8,1.4,2,1.4,3.3v30.3c0,1.2-0.5,2.4-1.4,3.3c-0.9,0.9-2.1,1.3-3.3,1.2c-0.2,0-0.5,0-0.7,0
				c-8,0-14.6,6.5-14.6,14.6c0,8,6.5,14.6,14.6,14.6c0.3,0,0.5,0,0.8,0c1.2-0.1,2.4,0.4,3.3,1.2c0.9,0.8,1.4,2,1.4,3.3v30.3
				c0,1.2-0.5,2.4-1.4,3.3s-2.1,1.3-3.3,1.2c-0.3,0-0.5,0-0.8,0c-8,0-14.6,6.5-14.6,14.6s6.5,14.6,14.6,14.6c0.3,0,0.5,0,0.8,0
				c1.2-0.1,2.4,0.4,3.3,1.2c0.9,0.8,1.4,2,1.4,3.3v20C357.1,940.5,355.1,942.5,352.6,942.5z M338.4,933.5h9.8v-11.2
				c-11.3-1.7-20.1-11.5-20.1-23.3s8.7-21.6,20.1-23.3v-21.7c-11.3-1.7-20.1-11.5-20.1-23.3s8.7-21.6,20.1-23.3v-21.7
				c-11.3-1.7-20.1-11.5-20.1-23.3s8.7-21.6,20.1-23.3v-21.7c-11.3-1.7-20.1-11.5-20.1-23.3s8.7-21.6,20.1-23.3v-21.7
				c-11.3-1.7-20.1-11.5-20.1-23.3s8.7-21.6,20.1-23.3v-21.7c-11.3-1.7-20.1-11.5-20.1-23.3s8.7-21.6,20.1-23.3v-11.2h-9.8
				c-2.1,10.9-11.7,19.1-23.1,19.1s-21-8.2-23.1-19.1H270c-2.1,10.9-11.7,19.1-23.1,19.1s-21-8.2-23.1-19.1h-22.1
				c-2.1,10.9-11.7,19.1-23.1,19.1s-21-8.2-23.1-19.1h-22.1c-2.1,10.9-11.7,19.1-23.1,19.1s-21-8.2-23.1-19.1h-9.8V534
				c10.9,2.1,19.1,11.7,19.1,23.1s-8.2,21-19.1,23.1v22.1c10.9,2.1,19.1,11.7,19.1,23.1s-8.2,21-19.1,23.1v22.1
				c10.9,2.1,19.1,11.7,19.1,23.1s-8.2,21-19.1,23.1v22.1c10.9,2.1,19.1,11.7,19.1,23.1s-8.2,21-19.1,23.1v22.1
				c10.9,2.1,19.1,11.7,19.1,23.1s-8.2,21-19.1,23.1v22.1c10.9,2.1,19.1,11.7,19.1,23.1s-8.2,21-19.1,23.1v11.4H87
				c2.1-10.9,11.7-19.1,23.1-19.1s21,8.2,23.1,19.1h22.1c2.1-10.9,11.7-19.1,23.1-19.1s21,8.2,23.1,19.1h22.1
				c2.1-10.9,11.7-19.1,23.1-19.1s21,8.2,23.1,19.1h22.1c2.1-10.9,11.7-19.1,23.1-19.1S336.3,922.6,338.4,933.5z"/>
		</g>
		<g>
			<path style="fill:#FFFFFF;" d="M309.2,896.3H116.1c-2.5,0-4.5-2-4.5-4.5V564.4c0-2.5,2-4.5,4.5-4.5h193.1c2.5,0,4.5,2,4.5,4.5
				v327.4C313.7,894.3,311.7,896.3,309.2,896.3z M120.6,887.3h184.1V568.9H120.6V887.3z"/>
		</g>
	</g>
	<g>
		<g>
			<path style="fill:#FFFFFF;" d="M685,801.6h-13.3c-2.5,0-4.5-2-4.5-4.5c0-4.5-3.7-8.2-8.2-8.2s-8.2,3.7-8.2,8.2
				c0,2.5-2,4.5-4.5,4.5h-20.1c-2.5,0-4.5-2-4.5-4.5c0-4.5-3.7-8.2-8.2-8.2s-8.2,3.7-8.2,8.2c0,2.5-2,4.5-4.5,4.5h-20.1
				c-2.5,0-4.5-2-4.5-4.5c0-4.5-3.7-8.2-8.2-8.2s-8.2,3.7-8.2,8.2c0,2.5-2,4.5-4.5,4.5h-20.1c-2.5,0-4.5-2-4.5-4.5
				c0-4.5-3.7-8.2-8.2-8.2s-8.2,3.7-8.2,8.2c0,2.5-2,4.5-4.5,4.5H490c-2.5,0-4.5-2-4.5-4.5c0-4.5-3.7-8.2-8.2-8.2s-8.2,3.7-8.2,8.2
				c0,2.5-2,4.5-4.5,4.5h-20.1c-2.5,0-4.5-2-4.5-4.5c0-4.5-3.7-8.2-8.2-8.2c-4.5,0-8.2,3.7-8.2,8.2c0,2.5-2,4.5-4.5,4.5H406
				c-2.5,0-4.5-2-4.5-4.5v-14.3c0-2.5,2-4.5,4.5-4.5c4.5,0,8.2-3.7,8.2-8.2s-3.7-8.2-8.2-8.2c-2.5,0-4.5-2-4.5-4.5v-20.1
				c0-2.5,2-4.5,4.5-4.5c4.5,0,8.2-3.7,8.2-8.2s-3.7-8.2-8.2-8.2c-2.5,0-4.5-2-4.5-4.5v-20.1c0-2.5,2-4.5,4.5-4.5
				c4.5,0,8.2-3.7,8.2-8.2s-3.7-8.2-8.2-8.2c-2.5,0-4.5-2-4.5-4.5v-20.1c0-2.5,2-4.5,4.5-4.5c4.5,0,8.2-3.7,8.2-8.2
				s-3.7-8.2-8.2-8.2c-2.5,0-4.5-2-4.5-4.5v-20.1c0-2.5,2-4.5,4.5-4.5c4.5,0,8.2-3.7,8.2-8.2s-3.7-8.2-8.2-8.2c-2.5,0-4.5-2-4.5-4.5
				v-20.1c0-2.5,2-4.5,4.5-4.5c4.5,0,8.2-3.7,8.2-8.2s-3.7-8.2-8.2-8.2c-2.5,0-4.5-2-4.5-4.5v-12.2c0-2.5,2-4.5,4.5-4.5h13.3
				c1.2,0,2.4,0.5,3.3,1.4c0.8,0.9,1.3,2.1,1.2,3.3l0,0.4c0,4.5,3.7,8.2,8.2,8.2c4.5,0,8.2-3.7,8.2-8.2l0-0.4
				c-0.1-1.2,0.4-2.4,1.2-3.3c0.8-0.9,2-1.4,3.3-1.4h20.1c1.2,0,2.4,0.5,3.3,1.4c0.9,0.9,1.3,2.1,1.2,3.3l0,0.4
				c0,4.5,3.7,8.2,8.2,8.2s8.2-3.7,8.2-8.2l0-0.4c-0.1-1.2,0.4-2.4,1.2-3.3c0.8-0.9,2-1.4,3.3-1.4h20.1c1.2,0,2.4,0.5,3.3,1.4
				c0.8,0.9,1.3,2.1,1.2,3.3l0,0.4c0,4.5,3.7,8.2,8.2,8.2s8.2-3.7,8.2-8.2l0-0.4c-0.1-1.2,0.4-2.4,1.2-3.3s2-1.4,3.3-1.4h20.1
				c1.2,0,2.4,0.5,3.3,1.4s1.3,2.1,1.2,3.3l0,0.5c0,4.5,3.7,8.2,8.2,8.2s8.2-3.7,8.2-8.2l0-0.4c-0.1-1.2,0.4-2.4,1.2-3.3
				s2-1.4,3.3-1.4H601c1.2,0,2.4,0.5,3.3,1.4s1.3,2.1,1.2,3.3l0,0.5c0,4.5,3.7,8.2,8.2,8.2s8.2-3.7,8.2-8.2l0-0.4
				c-0.1-1.2,0.4-2.4,1.2-3.3s2-1.4,3.3-1.4h20.1c1.2,0,2.4,0.5,3.3,1.4c0.8,0.9,1.3,2.1,1.2,3.3l0,0.4c0,4.5,3.7,8.2,8.2,8.2
				s8.2-3.7,8.2-8.2l0-0.4c-0.1-1.2,0.4-2.4,1.2-3.3c0.8-0.9,2-1.4,3.3-1.4H685c2.5,0,4.5,2,4.5,4.5v12.2c0,2.5-2,4.5-4.5,4.5
				c-4.5,0-8.2,3.7-8.2,8.2s3.7,8.2,8.2,8.2c2.5,0,4.5,2,4.5,4.5v20.1c0,2.5-2,4.5-4.5,4.5c-4.5,0-8.2,3.7-8.2,8.2s3.7,8.2,8.2,8.2
				c2.5,0,4.5,2,4.5,4.5v20.1c0,2.5-2,4.5-4.5,4.5c-4.5,0-8.2,3.7-8.2,8.2s3.7,8.2,8.2,8.2c2.5,0,4.5,2,4.5,4.5v20.1
				c0,2.5-2,4.5-4.5,4.5c-4.5,0-8.2,3.7-8.2,8.2s3.7,8.2,8.2,8.2c2.5,0,4.5,2,4.5,4.5V712c0,2.5-2,4.5-4.5,4.5
				c-4.5,0-8.2,3.7-8.2,8.2s3.7,8.2,8.2,8.2c2.5,0,4.5,2,4.5,4.5v20.1c0,2.5-2,4.5-4.5,4.5c-4.5,0-8.2,3.7-8.2,8.2s3.7,8.2,8.2,8.2
				c2.5,0,4.5,2,4.5,4.5v14.3C689.5,799.6,687.5,801.6,685,801.6z M675.6,792.6h4.9v-5.9c-7.3-2-12.7-8.7-12.7-16.6
				s5.4-14.6,12.7-16.6v-12.3c-7.3-2-12.7-8.7-12.7-16.6s5.4-14.6,12.7-16.6v-12.3c-7.3-2-12.7-8.7-12.7-16.6s5.4-14.6,12.7-16.6
				v-12.3c-7.3-2-12.7-8.7-12.7-16.6s5.4-14.6,12.7-16.6V605c-7.3-2-12.7-8.7-12.7-16.6s5.4-14.6,12.7-16.6v-12.3
				c-7.3-2-12.7-8.7-12.7-16.6s5.4-14.6,12.7-16.6v-3.8h-4.7c-1.7,7.6-8.6,13.3-16.7,13.3s-15-5.7-16.7-13.3h-11.9
				c-1.7,7.6-8.6,13.3-16.7,13.3s-15-5.7-16.7-13.3h-11.9c-1.7,7.6-8.6,13.3-16.7,13.3s-15-5.7-16.7-13.3h-11.9
				c-1.7,7.6-8.6,13.3-16.7,13.3s-15-5.7-16.7-13.3h-11.9c-1.7,7.6-8.6,13.3-16.7,13.3s-15-5.7-16.7-13.3h-11.9
				c-1.7,7.6-8.6,13.3-16.7,13.3s-15-5.7-16.7-13.3h-4.7v3.8c7.3,2,12.7,8.7,12.7,16.6s-5.4,14.6-12.7,16.6v12.3
				c7.3,2,12.7,8.7,12.7,16.6s-5.4,14.6-12.7,16.6v12.3c7.3,2,12.7,8.7,12.7,16.6s-5.4,14.6-12.7,16.6v12.3
				c7.3,2,12.7,8.7,12.7,16.6s-5.4,14.6-12.7,16.6v12.3c7.3,2,12.7,8.7,12.7,16.6s-5.4,14.6-12.7,16.6v12.3
				c7.3,2,12.7,8.7,12.7,16.6s-5.4,14.6-12.7,16.6v5.9h4.9c2-7.3,8.7-12.7,16.6-12.7s14.6,5.4,16.6,12.7h12.3
				c2-7.3,8.7-12.7,16.6-12.7s14.6,5.4,16.6,12.7h12.3c2-7.3,8.7-12.7,16.6-12.7s14.6,5.4,16.6,12.7h12.3c2-7.3,8.7-12.7,16.6-12.7
				s14.6,5.4,16.6,12.7H597c2-7.3,8.7-12.7,16.6-12.7s14.6,5.4,16.6,12.7h12.3c2-7.3,8.7-12.7,16.6-12.7S673.6,785.3,675.6,792.6z"
				/>
		</g>
		<g>
			<path style="fill:#FFFFFF;" d="M642.6,759.1H448.4c-2.5,0-4.5-2-4.5-4.5V560.4c0-2.5,2-4.5,4.5-4.5h194.2c2.5,0,4.5,2,4.5,4.5
				v194.2C647.1,757.1,645,759.1,642.6,759.1z M452.9,750.1h185.2V564.9H452.9V750.1z"/>
		</g>
	</g>
	<g>
		<g>
			<path style="fill:#FFFFFF;" d="M949.5,942.2h-15.3c-2.5,0-4.5-2-4.5-4.5c0-4.5-3.7-8.2-8.2-8.2s-8.2,3.7-8.2,8.2
				c0,2.5-2,4.5-4.5,4.5h-20.1c-2.5,0-4.5-2-4.5-4.5c0-4.5-3.7-8.2-8.2-8.2s-8.2,3.7-8.2,8.2c0,2.5-2,4.5-4.5,4.5h-20.1
				c-2.5,0-4.5-2-4.5-4.5c0-4.5-3.7-8.2-8.2-8.2s-8.2,3.7-8.2,8.2c0,2.5-2,4.5-4.5,4.5H798c-2.5,0-4.5-2-4.5-4.5
				c0-4.5-3.7-8.2-8.2-8.2s-8.2,3.7-8.2,8.2c0,2.5-2,4.5-4.5,4.5h-20.1c-2.5,0-4.5-2-4.5-4.5c0-4.5-3.7-8.2-8.2-8.2
				s-8.2,3.7-8.2,8.2c0,2.5-2,4.5-4.5,4.5h-20.1c-2.5,0-4.5-2-4.5-4.5c0-4.5-3.7-8.2-8.2-8.2s-8.2,3.7-8.2,8.2c0,2.5-2,4.5-4.5,4.5
				h-20.1c-2.5,0-4.5-2-4.5-4.5c0-4.5-3.7-8.2-8.2-8.2s-8.2,3.7-8.2,8.2c0,2.5-2,4.5-4.5,4.5h-20.1c-2.5,0-4.5-2-4.5-4.5
				c0-4.5-3.7-8.2-8.2-8.2s-8.2,3.7-8.2,8.2c0,2.5-2,4.5-4.5,4.5h-20.1c-2.5,0-4.5-2-4.5-4.5c0-4.5-3.7-8.2-8.2-8.2
				s-8.2,3.7-8.2,8.2c0,2.5-2,4.5-4.5,4.5h-20.1c-2.5,0-4.5-2-4.5-4.5c0-4.5-3.7-8.2-8.2-8.2s-8.2,3.7-8.2,8.2c0,2.5-2,4.5-4.5,4.5
				H480c-2.5,0-4.5-2-4.5-4.5c0-4.5-3.7-8.2-8.2-8.2s-8.2,3.7-8.2,8.2c0,2.5-2,4.5-4.5,4.5h-20.1c-2.5,0-4.5-2-4.5-4.5
				c0-4.5-3.7-8.2-8.2-8.2c-4.5,0-8.2,3.7-8.2,8.2c0,2.5-2,4.5-4.5,4.5H396c-2.5,0-4.5-2-4.5-4.5v-10c0-2.5,2-4.5,4.5-4.5
				c4.5,0,8.2-3.7,8.2-8.2s-3.7-8.2-8.2-8.2c-2.5,0-4.5-2-4.5-4.5v-20.1c0-2.5,2-4.5,4.5-4.5c4.5,0,8.2-3.7,8.2-8.2
				s-3.7-8.2-8.2-8.2c-2.5,0-4.5-2-4.5-4.5v-12.2c0-2.5,2-4.5,4.5-4.5h13.3c1.2,0,2.4,0.5,3.3,1.4s1.3,2.1,1.2,3.3l0,0.4
				c0,4.5,3.7,8.2,8.2,8.2c4.5,0,8.2-3.7,8.2-8.2l0-0.4c-0.1-1.2,0.4-2.4,1.2-3.3s2-1.4,3.3-1.4h20.1c1.2,0,2.4,0.5,3.3,1.4
				s1.3,2.1,1.2,3.3l0,0.4c0,4.5,3.7,8.2,8.2,8.2s8.2-3.7,8.2-8.2l0-0.4c-0.1-1.2,0.4-2.4,1.2-3.3c0.9-0.9,2-1.4,3.3-1.4h20.1
				c1.2,0,2.4,0.5,3.3,1.4s1.3,2.1,1.2,3.3l0,0.4c0,4.5,3.7,8.2,8.2,8.2s8.2-3.7,8.2-8.2l0-0.4c-0.1-1.2,0.4-2.4,1.2-3.3
				c0.8-0.9,2-1.4,3.3-1.4h20.1c1.2,0,2.4,0.5,3.3,1.4c0.8,0.9,1.3,2.1,1.2,3.3l0,0.5c0,4.5,3.7,8.2,8.2,8.2s8.2-3.7,8.2-8.2l0-0.4
				c-0.1-1.2,0.4-2.4,1.2-3.3c0.8-0.9,2-1.4,3.3-1.4H591c1.2,0,2.4,0.5,3.3,1.4c0.9,0.9,1.3,2.1,1.2,3.3l0,0.4
				c0,4.5,3.7,8.2,8.2,8.2s8.2-3.7,8.2-8.2l0-0.4c-0.1-1.2,0.4-2.4,1.2-3.3c0.8-0.9,2-1.4,3.3-1.4h20.1c1.2,0,2.4,0.5,3.3,1.4
				c0.9,0.9,1.3,2.1,1.2,3.3l0,0.4c0,4.5,3.7,8.2,8.2,8.2s8.2-3.7,8.2-8.2l0-0.4c-0.1-1.2,0.4-2.4,1.2-3.3c0.8-0.9,2-1.4,3.3-1.4
				h20.1c1.2,0,2.4,0.5,3.3,1.4c0.9,0.9,1.3,2.1,1.2,3.3l0,0.4c0,4.5,3.7,8.2,8.2,8.2s8.2-3.7,8.2-8.2l0-0.4
				c-0.1-1.2,0.4-2.4,1.2-3.3c0.8-0.9,2-1.4,3.3-1.4h20.1c1.2,0,2.4,0.5,3.3,1.4c0.8,0.9,1.3,2.1,1.2,3.3l0,0.5
				c0,4.5,3.7,8.2,8.2,8.2s8.2-3.7,8.2-8.2l0-0.4c-0.1-1.2,0.4-2.4,1.2-3.3c0.8-0.9,2-1.4,3.3-1.4h20.1c1.2,0,2.4,0.5,3.3,1.4
				c0.8,0.9,1.3,2.1,1.2,3.3l0,0.5c0,4.5,3.7,8.2,8.2,8.2s8.2-3.7,8.2-8.2l0-0.4c-0.1-1.2,0.4-2.4,1.2-3.3c0.8-0.9,2-1.4,3.3-1.4
				h20.1c1.2,0,2.4,0.5,3.3,1.4c0.9,0.9,1.3,2.1,1.2,3.3l0,0.4c0,4.5,3.7,8.2,8.2,8.2s8.2-3.7,8.2-8.2l0-0.4
				c-0.1-1.2,0.4-2.4,1.2-3.3c0.8-0.9,2-1.4,3.3-1.4h20.1c1.2,0,2.4,0.5,3.3,1.4c0.9,0.9,1.3,2.1,1.2,3.3l0,0.4
				c0,4.5,3.7,8.2,8.2,8.2s8.2-3.7,8.2-8.2l0-0.4c-0.1-1.2,0.4-2.4,1.2-3.3c0.8-0.9,2-1.4,3.3-1.4h20.1c1.2,0,2.4,0.5,3.3,1.4
				c0.9,0.9,1.3,2.1,1.2,3.3l0,0.4c0,4.5,3.7,8.2,8.2,8.2s8.2-3.7,8.2-8.2l0-0.4c-0.1-1.2,0.4-2.4,1.2-3.3c0.8-0.9,2-1.4,3.3-1.4
				h15.3c2.5,0,4.5,2,4.5,4.5v12.1c0,2.5-2,4.5-4.5,4.5c-4.8,0-8.7,3.7-8.7,8.2s3.9,8.2,8.7,8.2c2.5,0,4.5,2,4.5,4.5v20.1
				c0,2.5-2,4.5-4.5,4.5c-4.8,0-8.7,3.7-8.7,8.2s3.9,8.2,8.7,8.2c2.5,0,4.5,2,4.5,4.5v10.1C954,940.2,952,942.2,949.5,942.2z
				 M938.2,933.2h6.9v-1.7c-7.6-2-13.2-8.7-13.2-16.6s5.6-14.6,13.2-16.6v-12.2c-7.6-2-13.2-8.7-13.2-16.6s5.6-14.6,13.2-16.6v-3.7
				h-6.7c-1.7,7.6-8.6,13.3-16.7,13.3s-15-5.7-16.7-13.3h-11.9c-1.7,7.6-8.6,13.3-16.7,13.3s-15-5.7-16.7-13.3h-11.9
				c-1.7,7.6-8.6,13.3-16.7,13.3s-15-5.7-16.7-13.3H802c-1.7,7.6-8.6,13.3-16.7,13.3s-15-5.7-16.7-13.3h-11.9
				c-1.7,7.6-8.6,13.3-16.7,13.3s-15-5.7-16.7-13.3h-11.9c-1.7,7.6-8.6,13.3-16.7,13.3s-15-5.7-16.7-13.3h-11.9
				c-1.7,7.6-8.6,13.3-16.7,13.3s-15-5.7-16.7-13.3h-11.9c-1.7,7.6-8.6,13.3-16.7,13.3s-15-5.7-16.7-13.3h-11.9
				c-1.7,7.6-8.6,13.3-16.7,13.3s-15-5.7-16.7-13.3h-11.9c-1.7,7.6-8.6,13.3-16.7,13.3s-15-5.7-16.7-13.3h-11.9
				c-1.7,7.6-8.6,13.3-16.7,13.3s-15-5.7-16.7-13.3h-11.9c-1.7,7.6-8.6,13.3-16.7,13.3s-15-5.7-16.7-13.3h-4.7v3.8
				c7.3,2,12.7,8.7,12.7,16.6s-5.4,14.6-12.7,16.6v12.3c7.3,2,12.7,8.7,12.7,16.6s-5.4,14.6-12.7,16.6v1.6h4.9
				c2-7.3,8.7-12.7,16.6-12.7s14.6,5.4,16.6,12.7h12.3c2-7.3,8.7-12.7,16.6-12.7s14.6,5.4,16.6,12.7h12.3c2-7.3,8.7-12.7,16.6-12.7
				s14.6,5.4,16.6,12.7h12.3c2-7.3,8.7-12.7,16.6-12.7s14.6,5.4,16.6,12.7H587c2-7.3,8.7-12.7,16.6-12.7s14.6,5.4,16.6,12.7h12.3
				c2-7.3,8.7-12.7,16.6-12.7s14.6,5.4,16.6,12.7h12.3c2-7.3,8.7-12.7,16.6-12.7s14.6,5.4,16.6,12.7h12.3c2-7.3,8.7-12.7,16.6-12.7
				s14.6,5.4,16.6,12.7h12.3c2-7.3,8.7-12.7,16.6-12.7s14.6,5.4,16.6,12.7h12.3c2-7.3,8.7-12.7,16.6-12.7s14.6,5.4,16.6,12.7h12.3
				c2-7.3,8.7-12.7,16.6-12.7s14.6,5.4,16.6,12.7H905c2-7.3,8.7-12.7,16.6-12.7S936.2,925.9,938.2,933.2z"/>
		</g>
		<g>
			<path style="fill:#FFFFFF;" d="M913.8,909.2H431.7c-2.5,0-4.5-2-4.5-4.5v-27.1c0-2.5,2-4.5,4.5-4.5h482.1c2.5,0,4.5,2,4.5,4.5
				v27.1C918.3,907.2,916.3,909.2,913.8,909.2z M436.2,900.2h473.1v-18.1H436.2V900.2z"/>
		</g>
	</g>
	<g>
		<g>
			<path style="fill:#FFFFFF;" d="M906,785.9h-14.8c-2.5,0-4.5-2-4.5-4.5c0-4-3.7-7.3-8.2-7.3s-8.2,3.3-8.2,7.3c0,2.5-2,4.5-4.5,4.5
				h-20.1c-2.5,0-4.5-2-4.5-4.5c0-4-3.7-7.3-8.2-7.3s-8.2,3.3-8.2,7.3c0,2.5-2,4.5-4.5,4.5h-20.1c-2.5,0-4.5-2-4.5-4.5
				c0-4-3.7-7.3-8.2-7.3s-8.2,3.3-8.2,7.3c0,2.5-2,4.5-4.5,4.5h-14.8c-2.5,0-4.5-2-4.5-4.5v-16c0-1.4,0.6-2.6,1.7-3.5
				c1.1-0.9,2.4-1.2,3.8-0.9c0.6,0.1,1.1,0.2,1.7,0.2c4.5,0,8.2-3.7,8.2-8.2s-3.7-8.2-8.2-8.2c-0.6,0-1.1,0.1-1.7,0.2
				c-1.3,0.3-2.7-0.1-3.8-0.9c-1.1-0.9-1.7-2.1-1.7-3.5v-18.8c0-1.4,0.6-2.6,1.7-3.5c1.1-0.9,2.4-1.2,3.8-0.9
				c0.6,0.1,1.1,0.2,1.7,0.2c4.5,0,8.2-3.7,8.2-8.2s-3.7-8.2-8.2-8.2c-0.6,0-1.1,0.1-1.7,0.2c-1.3,0.3-2.7-0.1-3.8-0.9
				c-1.1-0.9-1.7-2.1-1.7-3.5v-18.8c0-1.4,0.6-2.6,1.7-3.5c1.1-0.9,2.4-1.2,3.8-0.9c0.6,0.1,1.1,0.2,1.7,0.2c4.5,0,8.2-3.7,8.2-8.2
				s-3.7-8.2-8.2-8.2c-0.6,0-1.1,0.1-1.7,0.2c-1.3,0.3-2.7-0.1-3.8-0.9c-1.1-0.9-1.7-2.1-1.7-3.5v-20.6c0-1.4,0.6-2.6,1.7-3.5
				c1.1-0.9,2.4-1.2,3.8-0.9c0.6,0.1,1.1,0.2,1.7,0.2c4.5,0,8.2-3.7,8.2-8.2s-3.7-8.2-8.2-8.2c-0.6,0-1.1,0.1-1.7,0.2
				c-1.3,0.3-2.7-0.1-3.8-0.9c-1.1-0.9-1.7-2.1-1.7-3.5v-20.6c0-1.4,0.6-2.6,1.7-3.5c1.1-0.9,2.4-1.2,3.8-0.9
				c0.6,0.1,1.1,0.2,1.7,0.2c4.5,0,8.2-3.7,8.2-8.2s-3.7-8.2-8.2-8.2c-0.6,0-1.1,0.1-1.7,0.2c-1.3,0.3-2.7-0.1-3.8-0.9
				c-1.1-0.9-1.7-2.1-1.7-3.5v-20.6c0-1.4,0.6-2.6,1.7-3.5c1.1-0.9,2.4-1.2,3.8-0.9c0.6,0.1,1.1,0.2,1.7,0.2c4.5,0,8.2-3.7,8.2-8.2
				s-3.7-8.2-8.2-8.2c-0.6,0-1.1,0.1-1.7,0.2c-1.3,0.3-2.7-0.1-3.8-0.9c-1.1-0.9-1.7-2.1-1.7-3.5v-20.6c0-1.4,0.6-2.6,1.7-3.5
				c1.1-0.9,2.4-1.2,3.8-0.9c0.6,0.1,1.1,0.2,1.7,0.2c4.5,0,8.2-3.7,8.2-8.2s-3.7-8.2-8.2-8.2c-0.6,0-1.1,0.1-1.7,0.2
				c-1.3,0.3-2.7-0.1-3.8-0.9c-1.1-0.9-1.7-2.1-1.7-3.5v-20.6c0-1.4,0.6-2.6,1.7-3.5c1.1-0.9,2.4-1.2,3.8-0.9
				c0.6,0.1,1.1,0.2,1.7,0.2c4.5,0,8.2-3.7,8.2-8.2c0-4.5-3.7-8.2-8.2-8.2c-0.6,0-1.1,0.1-1.7,0.2c-1.3,0.3-2.7-0.1-3.8-0.9
				c-1.1-0.9-1.7-2.1-1.7-3.5v-13.5c0-2.5,2-4.5,4.5-4.5H775c2.5,0,4.5,2,4.5,4.5c0,4.5,3.7,8.2,8.2,8.2s8.2-3.7,8.2-8.2
				c0-2.5,2-4.5,4.5-4.5l20.1,0c1.2,0,2.3,0.5,3.2,1.3c0.8,0.8,1.3,2,1.3,3.2c0,4.5,3.7,8.2,8.2,8.2s8.2-3.7,8.2-8.2
				c0-2.5,2-4.5,4.5-4.5l20.1,0c1.2,0,2.3,0.5,3.2,1.3c0.8,0.8,1.3,2,1.3,3.2c0,4.5,3.7,8.2,8.2,8.2s8.2-3.7,8.2-8.2
				c0-2.5,2-4.5,4.5-4.5l14.8,0c1.2,0,2.3,0.5,3.2,1.3c0.8,0.8,1.3,2,1.3,3.2v13.6c0,2-1.4,3.8-3.3,4.3c-2.2,0.6-4.5,3.6-4.5,8
				c0,4.4,2.3,7.4,4.5,8c2,0.5,3.3,2.3,3.3,4.3v20.6c0,2-1.4,3.8-3.3,4.3c-2.2,0.6-4.5,3.6-4.5,8c0,4.4,2.3,7.4,4.5,8
				c2,0.5,3.3,2.3,3.3,4.3V517c0,2-1.4,3.8-3.3,4.3c-2.2,0.6-4.5,3.6-4.5,8s2.3,7.4,4.5,8c2,0.5,3.3,2.3,3.3,4.3v20.6
				c0,2-1.4,3.8-3.3,4.3c-2.2,0.6-4.5,3.6-4.5,8c0,4.4,2.3,7.4,4.5,8c2,0.5,3.3,2.3,3.3,4.3v20.6c0,2-1.4,3.8-3.3,4.3
				c-2.2,0.6-4.5,3.6-4.5,8c0,4.4,2.3,7.4,4.5,8c2,0.5,3.3,2.3,3.3,4.3v20.6c0,2-1.4,3.8-3.3,4.3c-2.2,0.6-4.5,3.6-4.5,8
				s2.3,7.4,4.5,8c2,0.5,3.3,2.3,3.3,4.3v18.8c0,2-1.4,3.8-3.3,4.3c-2.2,0.6-4.5,3.6-4.5,8s2.3,7.4,4.5,8c2,0.5,3.3,2.3,3.3,4.3
				v18.8c0,2-1.4,3.8-3.3,4.3c-2.2,0.6-4.5,3.6-4.5,8c0,4.4,2.3,7.4,4.5,8c2,0.5,3.3,2.3,3.3,4.3v16.1
				C910.5,783.8,908.5,785.9,906,785.9z M895.1,776.9h6.5v-8.6c-4.7-2.9-7.8-8.7-7.8-15.3s3.1-12.4,7.8-15.3v-13
				c-4.7-2.9-7.8-8.7-7.8-15.3s3.1-12.4,7.8-15.3v-13c-4.7-2.9-7.8-8.7-7.8-15.3s3.1-12.4,7.8-15.3v-14.8c-4.7-2.9-7.8-8.7-7.8-15.3
				s3.1-12.4,7.8-15.3v-14.8c-4.7-2.9-7.8-8.7-7.8-15.3s3.1-12.4,7.8-15.3v-14.8c-4.7-2.9-7.8-8.7-7.8-15.3s3.1-12.4,7.8-15.3v-14.8
				c-4.7-2.9-7.8-8.7-7.8-15.3s3.1-12.4,7.8-15.3v-14.8c-4.7-2.9-7.8-8.7-7.8-15.3s3.1-12.4,7.8-15.3v-6.1h-6.4
				c-2,7.3-8.7,12.7-16.6,12.7s-14.6-5.4-16.6-12.7l-12.3,0c-2,7.3-8.7,12.7-16.6,12.7s-14.6-5.4-16.6-12.7l-12.3,0
				c-2,7.3-8.7,12.7-16.6,12.7s-14.6-5.4-16.6-12.7l-6.4,0v4.4c8.6,0.9,15.3,8.2,15.3,17.1c0,8.8-6.7,16.1-15.3,17.1v11.3
				c8.6,0.9,15.3,8.2,15.3,17.1s-6.7,16.1-15.3,17.1v11.3c8.6,0.9,15.3,8.2,15.3,17.1c0,8.8-6.7,16.1-15.3,17.1v11.3
				c8.6,0.9,15.3,8.2,15.3,17.1c0,8.8-6.7,16.1-15.3,17.1v11.3c8.6,0.9,15.3,8.2,15.3,17.1c0,8.8-6.7,16.1-15.3,17.1v11.3
				c8.6,0.9,15.3,8.2,15.3,17.1c0,8.8-6.7,16.1-15.3,17.1v9.5c8.6,0.9,15.3,8.2,15.3,17.1s-6.7,16.1-15.3,17.1v9.5
				c8.6,0.9,15.3,8.2,15.3,17.1c0,8.8-6.7,16.1-15.3,17.1v6.9h6.5c2.1-6.8,8.7-11.8,16.5-11.8c7.8,0,14.4,5,16.5,11.8h12.4
				c2.1-6.8,8.7-11.8,16.5-11.8c7.8,0,14.4,5,16.5,11.8h12.4c2.1-6.8,8.7-11.8,16.5-11.8S893,770.1,895.1,776.9z"/>
		</g>
		<g>
			<path style="fill:#FFFFFF;" d="M875.5,750.6h-80c-2.5,0-4.5-2-4.5-4.5v-293c0-2.5,2-4.5,4.5-4.5h80c2.5,0,4.5,2,4.5,4.5v293
				C880,748.6,878,750.6,875.5,750.6z M800,741.6h71v-284h-71V741.6z"/>
		</g>
	</g>
</g>
</svg>
